<svg width="65" height="29" viewBox="0 0 65 29" fill="none" xmlns="http://www.w3.org/2000/svg">
<path d="M2.3013 25.771C1.89846 25.771 1.52134 25.6609 1.16993 25.4408C0.818524 25.2206 0.535683 24.8904 0.32141 24.4501C0.107137 24.0097 0 23.4593 0 22.7989C0 22.0895 0.132849 21.4779 0.398548 20.9642C0.672818 20.4505 1.05851 20.055 1.55562 19.7778C2.06131 19.5006 2.6527 19.3619 3.32981 19.3619C3.7755 19.3619 4.18262 19.4149 4.55117 19.5209V17.356C4.55117 17.1767 4.46546 17.087 4.29404 17.087H3.72836L3.61265 16.769C3.86121 16.557 4.14405 16.3816 4.46117 16.243C4.78687 16.1044 5.06971 16.0351 5.30969 16.0351C5.42969 16.0351 5.52825 16.0718 5.60539 16.1452C5.68253 16.2186 5.7211 16.3123 5.7211 16.4265V24.5234C5.7211 24.7762 5.84966 24.9026 6.10679 24.9026C6.32106 24.9026 6.53534 24.8292 6.74961 24.6824L6.99388 25.0004C6.77104 25.2369 6.53105 25.4245 6.27392 25.5631C6.02537 25.7017 5.78967 25.771 5.56682 25.771C5.21541 25.771 4.96257 25.6691 4.80829 25.4652C4.65402 25.2614 4.57688 24.9311 4.57688 24.4745C4.20833 24.9719 3.83549 25.3144 3.45837 25.5019C3.08982 25.6813 2.70413 25.771 2.3013 25.771ZM2.81555 24.8292C3.14125 24.8292 3.45409 24.7395 3.75407 24.5601C4.06262 24.3807 4.33689 24.0994 4.57688 23.7162V20.4138C4.18262 20.161 3.76264 20.0346 3.31695 20.0346C2.69127 20.0346 2.20702 20.2589 1.86418 20.7074C1.52134 21.1477 1.34992 21.7674 1.34992 22.5665C1.34992 23.1209 1.41849 23.5653 1.55562 23.8997C1.69276 24.2258 1.87275 24.4623 2.09559 24.6091C2.32701 24.7558 2.56699 24.8292 2.81555 24.8292Z" fill="#E3A058"/>
<path d="M10.716 25.771C10.116 25.771 9.59322 25.6405 9.14753 25.3796C8.71041 25.1187 8.36757 24.7558 8.11902 24.291C7.87903 23.8181 7.75904 23.2677 7.75904 22.6399C7.75904 21.9794 7.89617 21.4045 8.17044 20.9153C8.44471 20.426 8.8304 20.0469 9.32752 19.7778C9.8332 19.5006 10.4203 19.3619 11.0888 19.3619C11.586 19.3619 11.9931 19.4476 12.3102 19.6188C12.6359 19.79 12.8759 20.0143 13.0302 20.2915C13.193 20.5606 13.2744 20.8501 13.2744 21.1599C13.2744 21.4942 13.1802 21.8204 12.9916 22.1384C12.8116 22.4564 12.5373 22.7173 12.1688 22.9212C11.8088 23.125 11.3588 23.2269 10.8189 23.2269C10.7332 23.2269 10.6089 23.2188 10.446 23.2025C10.2917 23.178 10.1332 23.1454 9.97034 23.1046C9.81606 23.0557 9.68321 22.9946 9.57179 22.9212C9.46037 22.8478 9.40466 22.7581 9.40466 22.6521C9.40466 22.5869 9.4218 22.5257 9.45608 22.4686C9.49894 22.4115 9.54608 22.383 9.5975 22.383C9.66607 22.383 9.75178 22.4115 9.85463 22.4686C9.96605 22.5175 10.1546 22.542 10.4203 22.542C10.7889 22.542 11.0931 22.4768 11.3331 22.3463C11.5731 22.2077 11.7531 22.0324 11.8731 21.8204C11.9931 21.6002 12.0531 21.376 12.0531 21.1477C12.0531 20.846 11.9502 20.5769 11.7445 20.3404C11.5388 20.0958 11.2346 19.9735 10.8317 19.9735C10.2832 19.9735 9.85463 20.2018 9.54608 20.6584C9.23752 21.1151 9.08325 21.7755 9.08325 22.6399C9.08325 23.3574 9.24181 23.9241 9.55893 24.34C9.88463 24.7558 10.3603 24.9638 10.986 24.9638C11.346 24.9638 11.6845 24.9067 12.0016 24.7925C12.3188 24.6784 12.6059 24.5031 12.863 24.2666C12.8973 24.234 12.9359 24.2177 12.9787 24.2177C13.0473 24.2177 13.1202 24.2584 13.1973 24.34C13.2744 24.4134 13.313 24.4908 13.313 24.5724C13.313 24.6131 13.2959 24.6498 13.2616 24.6824C12.6016 25.4082 11.7531 25.771 10.716 25.771Z" fill="#E3A058"/>
<path d="M22.3213 29C21.7985 29 21.3614 28.9144 21.01 28.7431C20.6671 28.5719 20.41 28.3518 20.2386 28.0827C20.0672 27.8136 19.9815 27.5364 19.9815 27.251C19.9815 26.9982 20.0415 26.7576 20.1614 26.5293C20.29 26.3092 20.4743 26.1257 20.7143 25.9789C20.9628 25.8403 21.2628 25.771 21.6142 25.771C21.7085 25.771 21.7728 25.7832 21.8071 25.8077C21.8413 25.8403 21.8585 25.8729 21.8585 25.9055C21.8585 25.9545 21.8071 26.0238 21.7042 26.1135C21.6014 26.2113 21.4942 26.3459 21.3828 26.5171C21.28 26.6883 21.2285 26.9248 21.2285 27.2265C21.2285 27.5364 21.3399 27.8014 21.5628 28.0215C21.7942 28.2498 22.1199 28.364 22.5399 28.364C23.0798 28.364 23.4955 28.1642 23.7869 27.7647C24.0784 27.3733 24.2241 26.7006 24.2241 25.7465V24.5968C23.9155 24.8414 23.5727 25.0371 23.1956 25.1839C22.827 25.3225 22.4156 25.3918 21.9613 25.3918C21.0614 25.3918 20.3157 25.1961 19.7243 24.8048C19.1415 24.4052 18.7044 23.8752 18.413 23.2147C18.1216 22.5461 17.9759 21.8081 17.9759 21.0009C17.9759 20.422 18.0616 19.8716 18.233 19.3497C18.4044 18.8278 18.6658 18.3671 19.0172 17.9676C19.3772 17.5599 19.8229 17.2378 20.3543 17.0013C20.8857 16.7649 21.5114 16.6466 22.2313 16.6466C22.8399 16.6466 23.3755 16.7282 23.8384 16.8913C24.3012 17.0543 24.6655 17.2786 24.9312 17.564C25.1969 17.8494 25.3297 18.1837 25.3297 18.5669C25.3297 18.9909 25.1969 19.3375 24.9312 19.6066C24.674 19.8675 24.3483 19.998 23.9541 19.998C23.8169 19.998 23.7355 19.9898 23.7098 19.9735C23.6927 19.949 23.6841 19.9083 23.6841 19.8512C23.6841 19.8104 23.7141 19.7493 23.7741 19.6677C23.8427 19.578 23.9069 19.4598 23.9669 19.313C24.0355 19.1581 24.0698 18.9665 24.0698 18.7382C24.0698 18.3223 23.9027 17.9839 23.5684 17.723C23.2341 17.4621 22.7884 17.3316 22.2313 17.3316C21.6914 17.3316 21.2371 17.4457 20.8685 17.6741C20.5 17.8942 20.2043 18.1878 19.9815 18.5547C19.7672 18.9135 19.6086 19.3049 19.5058 19.7289C19.4115 20.1447 19.3643 20.5484 19.3643 20.9397C19.3643 21.6084 19.4715 22.224 19.6858 22.7866C19.9 23.3411 20.2086 23.7855 20.6114 24.1198C21.0228 24.446 21.5114 24.6091 22.077 24.6091C22.5227 24.6091 22.9213 24.5357 23.2727 24.3889C23.6327 24.2421 23.9498 24.0383 24.2241 23.7773V23.1536C24.2241 22.7703 24.1684 22.5053 24.0569 22.3585C23.9455 22.2118 23.727 22.0976 23.4013 22.0161L23.1056 21.9427L23.2598 21.5268H25.9597L26.1268 21.7225L25.9597 21.9427C25.754 22.2199 25.604 22.5053 25.5097 22.7989C25.424 23.0924 25.3811 23.4879 25.3811 23.9853V25.4041C25.3811 26.2684 25.2526 26.9656 24.9955 27.4956C24.7469 28.0256 24.3955 28.4088 23.9412 28.6453C23.487 28.8818 22.947 29 22.3213 29Z" fill="#E3A058"/>
<path d="M29.9504 25.771C29.3504 25.771 28.8276 25.6405 28.3819 25.3796C27.9448 25.1187 27.602 24.7558 27.3534 24.291C27.1134 23.8181 26.9934 23.2677 26.9934 22.6399C26.9934 21.9794 27.1306 21.4045 27.4048 20.9153C27.6791 20.426 28.0648 20.0469 28.5619 19.7778C29.0676 19.5006 29.6547 19.3619 30.3232 19.3619C30.8203 19.3619 31.2275 19.4476 31.5446 19.6188C31.8703 19.79 32.1103 20.0143 32.2645 20.2915C32.4274 20.5606 32.5088 20.8501 32.5088 21.1599C32.5088 21.4942 32.4145 21.8204 32.226 22.1384C32.046 22.4564 31.7717 22.7173 31.4032 22.9212C31.0432 23.125 30.5932 23.2269 30.0532 23.2269C29.9675 23.2269 29.8433 23.2188 29.6804 23.2025C29.5261 23.178 29.3676 23.1454 29.2047 23.1046C29.0504 23.0557 28.9176 22.9946 28.8062 22.9212C28.6947 22.8478 28.639 22.7581 28.639 22.6521C28.639 22.5869 28.6562 22.5257 28.6905 22.4686C28.7333 22.4115 28.7805 22.383 28.8319 22.383C28.9004 22.383 28.9862 22.4115 29.089 22.4686C29.2004 22.5175 29.389 22.542 29.6547 22.542C30.0232 22.542 30.3275 22.4768 30.5675 22.3463C30.8075 22.2077 30.9875 22.0324 31.1075 21.8204C31.2275 21.6002 31.2875 21.376 31.2875 21.1477C31.2875 20.846 31.1846 20.5769 30.9789 20.3404C30.7732 20.0958 30.4689 19.9735 30.0661 19.9735C29.5176 19.9735 29.089 20.2018 28.7805 20.6584C28.4719 21.1151 28.3176 21.7755 28.3176 22.6399C28.3176 23.3574 28.4762 23.9241 28.7933 24.34C29.119 24.7558 29.5947 24.9638 30.2204 24.9638C30.5804 24.9638 30.9189 24.9067 31.236 24.7925C31.5532 24.6784 31.8403 24.5031 32.0974 24.2666C32.1317 24.234 32.1703 24.2177 32.2131 24.2177C32.2817 24.2177 32.3545 24.2584 32.4317 24.34C32.5088 24.4134 32.5474 24.4908 32.5474 24.5724C32.5474 24.6131 32.5302 24.6498 32.496 24.6824C31.836 25.4082 30.9875 25.771 29.9504 25.771ZM28.9219 18.6403L28.549 18.2122L30.5546 16.3042C30.7175 16.3776 30.8461 16.4795 30.9403 16.61C31.0432 16.7404 31.0946 16.8953 31.0946 17.0747C31.0946 17.2541 31.0389 17.4172 30.9275 17.564C30.8246 17.7026 30.6403 17.8331 30.3747 17.9554L28.9219 18.6403Z" fill="#E3A058"/>
<path d="M36.9352 25.771C36.2924 25.771 35.7353 25.6405 35.2639 25.3796C34.8011 25.1187 34.4411 24.7477 34.184 24.2666C33.9268 23.7855 33.7983 23.2188 33.7983 22.5665C33.7983 21.906 33.9268 21.3393 34.184 20.8664C34.4411 20.3853 34.8011 20.0143 35.2639 19.7533C35.7353 19.4924 36.2924 19.3619 36.9352 19.3619C37.578 19.3619 38.1309 19.4924 38.5937 19.7533C39.0651 20.0143 39.4294 20.3853 39.6865 20.8664C39.9436 21.3393 40.0722 21.906 40.0722 22.5665C40.0722 23.2188 39.9436 23.7855 39.6865 24.2666C39.4294 24.7477 39.0651 25.1187 38.5937 25.3796C38.1309 25.6405 37.578 25.771 36.9352 25.771ZM36.8967 25.1105C37.4281 25.1105 37.8652 24.8822 38.208 24.4256C38.5509 23.9608 38.7223 23.3533 38.7223 22.6032C38.7223 22.3585 38.6923 22.0854 38.6323 21.7837C38.5808 21.482 38.4866 21.1966 38.3494 20.9275C38.2209 20.6584 38.0452 20.4383 37.8223 20.267C37.5995 20.0876 37.3166 19.998 36.9738 19.998C36.6138 19.998 36.2924 20.108 36.0096 20.3282C35.7353 20.5402 35.521 20.8419 35.3667 21.2333C35.2125 21.6165 35.1353 22.065 35.1353 22.5787C35.1353 23.3452 35.2939 23.9608 35.611 24.4256C35.9281 24.8822 36.3567 25.1105 36.8967 25.1105Z" fill="#E3A058"/>
<path d="M41.4366 25.5998L41.2952 25.2206L41.5651 25.1595C41.788 25.1105 41.9337 25.0208 42.0023 24.8904C42.0708 24.7599 42.1051 24.5438 42.1051 24.2421V20.8052C42.1051 20.6258 42.0194 20.5361 41.848 20.5361H41.2823L41.1666 20.2181C41.4151 20.0061 41.698 19.8308 42.0151 19.6922C42.3408 19.5536 42.6237 19.4842 42.8636 19.4842C42.9836 19.4842 43.0822 19.5209 43.1593 19.5943C43.2365 19.6677 43.275 19.7615 43.275 19.8756V21.1844H43.3522C43.4979 20.638 43.7207 20.1977 44.0207 19.8634C44.3293 19.5291 44.6635 19.3619 45.0235 19.3619C45.3749 19.3619 45.6706 19.472 45.9106 19.6922C46.1506 19.9123 46.2706 20.2181 46.2706 20.6095C46.2706 20.9194 46.1506 21.1803 45.9106 21.3923C45.6792 21.6043 45.3792 21.7103 45.0107 21.7103C44.8478 21.7103 44.7664 21.6655 44.7664 21.5758C44.7664 21.535 44.7964 21.4779 44.8564 21.4045C44.9164 21.3311 44.9764 21.2374 45.0364 21.1232C45.0964 21.0091 45.1264 20.8786 45.1264 20.7318C45.1264 20.585 45.0835 20.4709 44.9978 20.3893C44.9207 20.2997 44.8221 20.2548 44.7021 20.2548C44.5221 20.2548 44.3207 20.3649 44.0979 20.585C43.875 20.797 43.6822 21.1558 43.5193 21.6614C43.3565 22.1588 43.275 22.8356 43.275 23.6917C43.275 24.0587 43.305 24.3563 43.365 24.5846C43.425 24.8048 43.5322 25.0168 43.6864 25.2206L43.8407 25.4163L43.6864 25.5998H41.4366Z" fill="#E3A058"/>
<path d="M49.9028 29C49.4057 29 48.9943 28.9144 48.6686 28.7431C48.3429 28.5719 48.0986 28.3518 47.9358 28.0827C47.7815 27.8136 47.7044 27.5364 47.7044 27.251C47.7044 26.9982 47.7644 26.7576 47.8844 26.5293C48.0129 26.3092 48.1972 26.1257 48.4372 25.9789C48.6857 25.8403 48.9857 25.771 49.3371 25.771C49.4314 25.771 49.4957 25.7832 49.53 25.8077C49.5643 25.8403 49.5814 25.8729 49.5814 25.9055C49.5814 25.9545 49.53 26.0238 49.4271 26.1135C49.3243 26.2113 49.2171 26.3459 49.1057 26.5171C49.0029 26.6883 48.9514 26.9248 48.9514 27.2265C48.9514 27.5364 49.05 27.8014 49.2471 28.0215C49.4443 28.2498 49.7185 28.364 50.0699 28.364C50.4385 28.364 50.7342 28.2621 50.957 28.0582C51.1885 27.8625 51.3556 27.5894 51.4584 27.2387C51.5613 26.8963 51.6127 26.5049 51.6127 26.0646V24.1198C51.2442 24.6172 50.8713 24.9597 50.4942 25.1472C50.1257 25.3266 49.74 25.4163 49.3371 25.4163C48.9343 25.4163 48.5572 25.3225 48.2058 25.135C47.8544 24.9393 47.5715 24.6457 47.3572 24.2544C47.143 23.863 47.0358 23.3778 47.0358 22.7989C47.0358 22.0895 47.1687 21.4779 47.4344 20.9642C47.7087 20.4505 48.0943 20.055 48.5915 19.7778C49.0971 19.5006 49.6885 19.3619 50.3656 19.3619C50.7685 19.3619 51.1885 19.4068 51.6256 19.4965C52.0627 19.578 52.4998 19.6351 52.9369 19.6677L53.0783 19.8267L52.9241 20.0469C52.8726 20.1203 52.8298 20.1936 52.7955 20.267C52.7698 20.3323 52.7569 20.4179 52.7569 20.5239V25.8689C52.7569 26.88 52.4955 27.6546 51.9727 28.1928C51.4584 28.7309 50.7685 29 49.9028 29ZM49.8514 24.4745C50.1771 24.4745 50.4899 24.3848 50.7899 24.2054C51.0985 24.026 51.3727 23.7447 51.6127 23.3615V20.4138C51.2185 20.161 50.7985 20.0346 50.3528 20.0346C49.7271 20.0346 49.2429 20.2589 48.9 20.7074C48.5572 21.1477 48.3858 21.7674 48.3858 22.5665C48.3858 23.0313 48.4543 23.4063 48.5915 23.6917C48.7286 23.969 48.9086 24.1687 49.1314 24.291C49.3543 24.4134 49.5943 24.4745 49.8514 24.4745Z" fill="#E3A058"/>
<path d="M56.3768 25.771C56.0254 25.771 55.7726 25.6691 55.6183 25.4652C55.464 25.2614 55.3869 24.9311 55.3869 24.4745V20.6829C55.3869 20.5035 55.3012 20.4138 55.1297 20.4138H54.5641L54.4484 20.0958C54.6969 19.8838 54.9798 19.7085 55.2969 19.5699C55.6226 19.4312 55.9054 19.3619 56.1454 19.3619C56.2654 19.3619 56.3597 19.3986 56.4282 19.472C56.5054 19.5454 56.544 19.6392 56.544 19.7533V24.5234C56.544 24.8007 56.6725 24.9393 56.9296 24.9393C57.1439 24.9393 57.3582 24.8537 57.5725 24.6824L57.8167 25.0004C57.5939 25.2369 57.3539 25.4245 57.0968 25.5631C56.8396 25.7017 56.5997 25.771 56.3768 25.771ZM55.9911 18.3468C55.8968 18.3468 55.7854 18.3019 55.6569 18.2122C55.5369 18.1225 55.4297 18.0165 55.3354 17.8942C55.2497 17.7719 55.2069 17.6577 55.2069 17.5517C55.2069 17.4457 55.2497 17.3316 55.3354 17.2093C55.4297 17.0788 55.5369 16.9687 55.6569 16.879C55.7768 16.7893 55.8883 16.7445 55.9911 16.7445C56.1025 16.7445 56.2183 16.7893 56.3382 16.879C56.4668 16.9687 56.5739 17.0788 56.6597 17.2093C56.7539 17.3316 56.8011 17.4457 56.8011 17.5517C56.8011 17.6577 56.7539 17.7719 56.6597 17.8942C56.5739 18.0165 56.4668 18.1225 56.3382 18.2122C56.2183 18.3019 56.1025 18.3468 55.9911 18.3468Z" fill="#E3A058"/>
<path d="M61.539 25.771C60.939 25.771 60.4162 25.6405 59.9705 25.3796C59.5334 25.1187 59.1905 24.7558 58.942 24.291C58.702 23.8181 58.582 23.2677 58.582 22.6399C58.582 21.9794 58.7191 21.4045 58.9934 20.9153C59.2677 20.426 59.6534 20.0469 60.1505 19.7778C60.6562 19.5006 61.2433 19.3619 61.9118 19.3619C62.4089 19.3619 62.816 19.4476 63.1332 19.6188C63.4589 19.79 63.6988 20.0143 63.8531 20.2915C64.016 20.5606 64.0974 20.8501 64.0974 21.1599C64.0974 21.4942 64.0031 21.8204 63.8145 22.1384C63.6346 22.4564 63.3603 22.7173 62.9917 22.9212C62.6318 23.125 62.1818 23.2269 61.6418 23.2269C61.5561 23.2269 61.4318 23.2188 61.269 23.2025C61.1147 23.178 60.9561 23.1454 60.7933 23.1046C60.639 23.0557 60.5062 22.9946 60.3947 22.9212C60.2833 22.8478 60.2276 22.7581 60.2276 22.6521C60.2276 22.5869 60.2448 22.5257 60.279 22.4686C60.3219 22.4115 60.369 22.383 60.4205 22.383C60.489 22.383 60.5747 22.4115 60.6776 22.4686C60.789 22.5175 60.9776 22.542 61.2433 22.542C61.6118 22.542 61.9161 22.4768 62.1561 22.3463C62.3961 22.2077 62.576 22.0324 62.696 21.8204C62.816 21.6002 62.876 21.376 62.876 21.1477C62.876 20.846 62.7732 20.5769 62.5675 20.3404C62.3618 20.0958 62.0575 19.9735 61.6547 19.9735C61.1061 19.9735 60.6776 20.2018 60.369 20.6584C60.0605 21.1151 59.9062 21.7755 59.9062 22.6399C59.9062 23.3574 60.0648 23.9241 60.3819 24.34C60.7076 24.7558 61.1833 24.9638 61.8089 24.9638C62.1689 24.9638 62.5075 24.9067 62.8246 24.7925C63.1417 24.6784 63.4289 24.5031 63.686 24.2666C63.7203 24.234 63.7588 24.2177 63.8017 24.2177C63.8703 24.2177 63.9431 24.2584 64.0203 24.34C64.0974 24.4134 64.136 24.4908 64.136 24.5724C64.136 24.6131 64.1188 24.6498 64.0845 24.6824C63.4246 25.4082 62.576 25.771 61.539 25.771Z" fill="#E3A058"/>
<path d="M11.719 15.0037L11.5276 14.7912C11.3522 14.611 11.0174 14.5209 10.523 14.5209H0.453194L0.190086 13.903L0.692382 13.7871C1.26644 13.6455 1.64914 13.4717 1.84049 13.2658C2.04779 13.0469 2.15144 12.6543 2.15144 12.0879V4.53779C2.15144 3.75252 2.06373 3.12818 1.88833 2.66474C1.72887 2.20131 1.45779 1.75075 1.07508 1.31306L0.764139 0.965486L1.07508 0.65653H8.39427C9.76562 0.65653 10.6745 0.521362 11.121 0.251027L11.5516 0L11.9343 0.251027V3.68816L11.121 3.91987L10.9775 3.47575C10.834 3.01232 10.6666 2.65831 10.4752 2.41372C10.2839 2.16913 10.0287 2.00178 9.7098 1.91166C9.39089 1.80868 8.9444 1.75719 8.37035 1.75719H6.05021C5.42832 1.75719 5.01373 1.85373 4.80643 2.04683C4.61508 2.22705 4.51941 2.61969 4.51941 3.22472V6.93219H7.5571C7.92386 6.93219 8.25075 6.86783 8.53778 6.73909C8.84075 6.61036 9.14372 6.37865 9.4467 6.04394L9.63805 5.83154L10.1164 6.04394V9.34591L9.30318 9.57762L9.15967 9.1335C9.01616 8.68294 8.75305 8.38686 8.37035 8.24525C8.00359 8.10365 7.39764 8.03285 6.55251 8.03285H4.51941V11.9527C4.51941 12.5449 4.61508 12.9375 4.80643 13.1306C5.01373 13.3237 5.42832 13.4203 6.05021 13.4203H8.63346C9.20751 13.4203 9.65399 13.3752 9.97291 13.2851C10.2918 13.1821 10.547 13.0083 10.7383 12.7637C10.9297 12.5063 11.0971 12.1523 11.2406 11.7017L11.3841 11.2576L12.1974 11.4893V14.7912L11.719 15.0037Z" fill="#E3A058"/>
<path d="M19.1662 14.7912C18.3848 14.7912 17.6752 14.6947 17.0374 14.5016C16.4155 14.3085 15.9212 14.0317 15.5544 13.6713C15.1877 13.298 15.0043 12.8667 15.0043 12.3775C15.0043 11.9398 15.1877 11.5794 15.5544 11.2962C15.9212 11.013 16.3996 10.8714 16.9896 10.8714C17.1171 10.8714 17.2287 10.8907 17.3244 10.9293C17.436 10.9551 17.4918 11.013 17.4918 11.1031C17.4918 11.1803 17.444 11.3026 17.3483 11.47C17.2527 11.6245 17.2048 11.8626 17.2048 12.1844C17.2048 12.5706 17.3244 12.886 17.5636 13.1306C17.8028 13.3752 18.0978 13.5554 18.4486 13.6713C18.7994 13.7871 19.1423 13.8451 19.4771 13.8451C20.1309 13.8451 20.6651 13.7035 21.0797 13.4203C21.5102 13.1242 21.7255 12.7444 21.7255 12.281C21.7255 11.972 21.5979 11.7146 21.3428 11.5086C21.1036 11.2898 20.7847 11.0967 20.386 10.9293C19.9874 10.762 19.5648 10.601 19.1183 10.4466C18.5443 10.2535 17.9623 10.0282 17.3723 9.77072C16.7823 9.51326 16.2879 9.19143 15.8893 8.80523C15.4906 8.40617 15.2913 7.89768 15.2913 7.27977C15.2913 6.75197 15.4827 6.29497 15.8654 5.90878C16.2481 5.52258 16.7663 5.22006 17.4201 5.00122C18.0739 4.78238 18.8154 4.67295 19.6445 4.67295C20.7608 4.67295 21.6936 4.85318 22.4431 5.21363C23.2085 5.5612 23.5912 6.04394 23.5912 6.66185C23.5912 7.13816 23.3998 7.53723 23.0171 7.85906C22.6504 8.18089 22.172 8.3418 21.582 8.3418C21.2471 8.3418 21.0797 8.25813 21.0797 8.09077C21.0797 7.98779 21.1355 7.85906 21.2471 7.70458C21.3747 7.53723 21.4385 7.30551 21.4385 7.00943C21.4385 6.66185 21.3348 6.38508 21.1275 6.17911C20.9202 5.97314 20.6651 5.8251 20.3621 5.73499C20.0751 5.64488 19.7801 5.59982 19.4771 5.59982C18.8074 5.59982 18.2891 5.73499 17.9224 6.00533C17.5556 6.26279 17.3723 6.59749 17.3723 7.00943C17.3723 7.357 17.4998 7.65309 17.755 7.89768C18.026 8.14227 18.3768 8.35467 18.8074 8.5349C19.2379 8.71512 19.6924 8.88891 20.1708 9.05626C20.7608 9.24936 21.3348 9.4682 21.8929 9.71279C22.467 9.94451 22.9454 10.2342 23.3281 10.5817C23.7108 10.9293 23.9021 11.367 23.9021 11.8948C23.9021 12.7702 23.4716 13.4718 22.6105 13.9996C21.7494 14.5273 20.6013 14.7912 19.1662 14.7912Z" fill="#E3A058"/>
<path d="M26.9621 15.1774L26.6751 14.8878L26.9621 14.5788C27.2492 14.2441 27.4485 13.8966 27.5601 13.5361C27.6717 13.1757 27.7275 12.6929 27.7275 12.0879L27.6919 3.94562C27.6919 3.75252 27.6601 3.61092 27.5963 3.52081C27.5325 3.41782 27.3969 3.34702 27.1896 3.3084L25.9459 3.09599V2.45877C26.1213 2.33004 26.4003 2.20775 26.783 2.09189C27.1817 1.97603 27.6042 1.87948 28.0507 1.80224C28.5132 1.725 28.9198 1.68638 29.2706 1.68638C29.6533 1.68638 29.8446 1.98246 29.8446 2.57463V2.67118C30.8811 1.86017 32.0292 1.45467 33.2889 1.45467C34.2935 1.45467 35.1785 1.6542 35.9439 2.05327C36.7093 2.45234 37.3073 3.00588 37.7379 3.7139C38.1684 4.40905 38.3837 5.21363 38.3837 6.12762C38.3837 7.17035 38.1525 8.10365 37.69 8.92753C37.2435 9.73854 36.6216 10.3822 35.8244 10.8585C35.043 11.3348 34.1421 11.573 33.1215 11.573C32.1807 11.573 31.3834 11.3992 30.7296 11.0516C30.5861 10.9744 30.5144 10.8585 30.5144 10.704C30.5144 10.5882 30.5383 10.4787 30.5861 10.3758C30.6499 10.2728 30.7456 10.2213 30.8731 10.2213C31.0007 10.2213 31.1761 10.2728 31.3994 10.3758C31.6385 10.4787 32.0292 10.5302 32.5714 10.5302C33.2092 10.5302 33.7753 10.3564 34.2696 10.0089C34.7639 9.6613 35.1466 9.18499 35.4177 8.57995C35.7048 7.97492 35.8483 7.2862 35.8483 6.51381C35.8483 5.76717 35.7048 5.11064 35.4177 4.54422C35.1466 3.9778 34.756 3.53368 34.2457 3.21185C33.7514 2.89002 33.1773 2.72911 32.5235 2.72911C31.5508 2.72911 30.6579 2.98013 29.8446 3.48219L29.8802 13.0341C29.8802 13.5104 29.944 13.8515 30.0716 14.0575C30.2151 14.2635 30.4862 14.4051 30.8848 14.4823L31.3871 14.5788L31.124 15.1774H26.9621Z" fill="#E3A058"/>
<path d="M40.9125 14.5209L40.6494 13.9223L41.1517 13.8258C41.5663 13.7485 41.8374 13.6069 41.965 13.4009C42.0925 13.195 42.1563 12.8538 42.1563 12.3775V6.9515C42.1563 6.66829 41.9969 6.52669 41.6779 6.52669H40.6255L40.4102 6.02463C40.8727 5.68993 41.3989 5.41316 41.9889 5.19432C42.5948 4.97547 43.121 4.86605 43.5675 4.86605C43.7908 4.86605 43.9741 4.92398 44.1177 5.03984C44.2612 5.1557 44.3329 5.30374 44.3329 5.48396V7.5501H44.4764C44.7475 6.6876 45.1621 5.99245 45.7202 5.46465C46.2943 4.93685 46.9162 4.67295 47.5859 4.67295C48.2397 4.67295 48.7898 4.84674 49.2363 5.19432C49.6828 5.54189 49.906 6.02464 49.906 6.64255C49.906 7.13173 49.6828 7.54367 49.2363 7.87837C48.8058 8.21307 48.2477 8.38042 47.562 8.38042C47.259 8.38042 47.1075 8.30962 47.1075 8.16801C47.1075 8.10365 47.1633 8.01353 47.275 7.89768C47.3866 7.78182 47.4982 7.63378 47.6098 7.45355C47.7214 7.27333 47.7772 7.06736 47.7772 6.83564C47.7772 6.60393 47.6975 6.4237 47.5381 6.29497C47.3945 6.15337 47.2112 6.08256 46.9879 6.08256C46.6531 6.08256 46.2783 6.25635 45.8637 6.60393C45.4491 6.93863 45.0904 7.50505 44.7874 8.30318C44.4844 9.08844 44.3329 10.1569 44.3329 11.5086C44.3329 12.0879 44.3887 12.5578 44.5004 12.9182C44.612 13.2658 44.8113 13.6005 45.0983 13.9223L45.3854 14.2313L45.0983 14.5209H40.9125Z" fill="#E3A058"/>
<path d="M54.3196 14.7912C53.6658 14.7912 53.1954 14.6303 52.9084 14.3085C52.6214 13.9867 52.4779 13.4653 52.4779 12.7444V6.7584C52.4779 6.47519 52.3184 6.33359 51.9995 6.33359H50.9471L50.7318 5.83154C51.1942 5.49683 51.7204 5.22006 52.3104 5.00122C52.9164 4.78238 53.4426 4.67295 53.8891 4.67295C54.1123 4.67295 54.2877 4.73088 54.4153 4.84674C54.5588 4.9626 54.6306 5.11064 54.6306 5.29087V12.8217C54.6306 13.2593 54.8698 13.4782 55.3481 13.4782C55.7468 13.4782 56.1454 13.343 56.5441 13.0727L56.9985 13.5747C56.5839 13.9481 56.1375 14.2441 55.6591 14.463C55.1807 14.6818 54.7342 14.7912 54.3196 14.7912ZM53.6021 3.07025C53.4267 3.07025 53.2194 2.99944 52.9802 2.85784C52.7569 2.71623 52.5576 2.54888 52.3822 2.35579C52.2227 2.16269 52.143 1.98246 52.143 1.81511C52.143 1.64776 52.2227 1.46754 52.3822 1.27444C52.5576 1.06847 52.7569 0.894684 52.9802 0.753079C53.2034 0.611475 53.4107 0.540672 53.6021 0.540672C53.8094 0.540672 54.0246 0.611475 54.2479 0.753079C54.4871 0.894684 54.6864 1.06847 54.8458 1.27444C55.0212 1.46754 55.1089 1.64776 55.1089 1.81511C55.1089 1.98246 55.0212 2.16269 54.8458 2.35579C54.6864 2.54888 54.4871 2.71623 54.2479 2.85784C54.0246 2.99944 53.8094 3.07025 53.6021 3.07025Z" fill="#E3A058"/>
<path d="M61.7709 14.7912C61.1171 14.7912 60.6069 14.6303 60.2401 14.3085C59.8893 13.9738 59.7139 13.5168 59.7139 12.9375V6.14049H57.609C57.609 5.79292 57.6409 5.56764 57.7047 5.46465C57.7685 5.36167 57.9279 5.28443 58.1831 5.23293C58.805 5.1042 59.2834 4.91754 59.6182 4.67295C59.969 4.41549 60.2242 4.12585 60.3836 3.80402C60.559 3.48219 60.6866 3.14105 60.7663 2.7806C60.8142 2.57463 60.8939 2.4459 61.0055 2.39441C61.1331 2.34291 61.4281 2.31717 61.8905 2.31717V4.92398H65C65 5.50327 64.8166 5.90878 64.4499 6.14049H61.8905V12.3582C61.8905 12.7573 61.9623 13.0405 62.1058 13.2079C62.2493 13.3752 62.4805 13.4589 62.7995 13.4589C63.2778 13.4589 63.82 13.2529 64.4259 12.841L64.8804 13.343C64.4658 13.7807 63.9715 14.1347 63.3974 14.4051C62.8234 14.6625 62.2812 14.7912 61.7709 14.7912Z" fill="#E3A058"/>
</svg>
