<svg width="783" height="121" viewBox="0 0 783 121" fill="none" xmlns="http://www.w3.org/2000/svg">
<path d="M27.45 118L25.5 115.6L27.45 112.9C29.95 109.6 31.7 106.15 32.7 102.55C33.7 98.85 34.2 93.95 34.2 87.85V30.25C34.2 25.55 33.85 22.5 33.15 21.1C32.55 19.6 31.2 18.85 29.1 18.85H22.35C18.85 18.85 16.05 19.25 13.95 20.05C11.95 20.75 10.35 22.05 9.15 23.95C8.05 25.85 7 28.6 6 32.2L5.1 35.65L2.12342e-07 33.85V7.15L2.4 5.19999L5.1 7.15C7.9 9.24999 13.6 10.3 22.2 10.3H61.05C69.65 10.3 75.35 9.24999 78.15 7.15L80.85 5.19999L83.25 7.15V33.85L78.15 35.65L77.25 32.2C76.35 28.6 75.3 25.85 74.1 23.95C72.9 22.05 71.3 20.75 69.3 20.05C67.3 19.25 64.5 18.85 60.9 18.85H54.15C52.05 18.85 50.65 19.6 49.95 21.1C49.35 22.5 49.05 25.55 49.05 30.25V98.05C49.05 102.65 49.7 105.85 51 107.65C52.4 109.45 54.95 110.9 58.65 112L62.1 112.9L60.3 118H27.45ZM119.012 120.1C111.512 120.1 105.012 118.5 99.5121 115.3C94.1121 112.1 89.9121 107.55 86.9121 101.65C83.9121 95.75 82.4121 88.8 82.4121 80.8C82.4121 72.7 83.9121 65.75 86.9121 59.95C89.9121 54.05 94.1121 49.5 99.5121 46.3C105.012 43.1 111.512 41.5 119.012 41.5C126.512 41.5 132.962 43.1 138.362 46.3C143.862 49.5 148.112 54.05 151.112 59.95C154.112 65.75 155.612 72.7 155.612 80.8C155.612 88.8 154.112 95.75 151.112 101.65C148.112 107.55 143.862 112.1 138.362 115.3C132.962 118.5 126.512 120.1 119.012 120.1ZM118.562 112C124.762 112 129.862 109.2 133.862 103.6C137.862 97.9 139.862 90.45 139.862 81.25C139.862 78.25 139.512 74.9 138.812 71.2C138.212 67.5 137.112 64 135.512 60.7C134.012 57.4 131.962 54.7 129.362 52.6C126.762 50.4 123.462 49.3 119.462 49.3C115.262 49.3 111.512 50.65 108.212 53.35C105.012 55.95 102.512 59.65 100.712 64.45C98.9121 69.15 98.0121 74.65 98.0121 80.95C98.0121 90.35 99.8621 97.9 103.562 103.6C107.262 109.2 112.262 112 118.562 112ZM190.131 120.1C186.031 120.1 183.081 118.85 181.281 116.35C179.481 113.85 178.581 109.8 178.581 104.2V57.7C178.581 55.5 177.581 54.4 175.581 54.4H168.981L167.631 50.5C170.531 47.9 173.831 45.75 177.531 44.05C181.331 42.35 184.631 41.5 187.431 41.5C188.831 41.5 189.931 41.95 190.731 42.85C191.631 43.75 192.081 44.9 192.081 46.3V104.8C192.081 108.2 193.581 109.9 196.581 109.9C199.081 109.9 201.581 108.85 204.081 106.75L206.931 110.65C204.331 113.55 201.531 115.85 198.531 117.55C195.531 119.25 192.731 120.1 190.131 120.1ZM185.631 29.05C184.531 29.05 183.231 28.5 181.731 27.4C180.331 26.3 179.081 25 177.981 23.5C176.981 22 176.481 20.6 176.481 19.3C176.481 18 176.981 16.6 177.981 15.1C179.081 13.5 180.331 12.15 181.731 11.05C183.131 9.94999 184.431 9.39999 185.631 9.39999C186.931 9.39999 188.281 9.94999 189.681 11.05C191.181 12.15 192.431 13.5 193.431 15.1C194.531 16.6 195.081 18 195.081 19.3C195.081 20.6 194.531 22 193.431 23.5C192.431 25 191.181 26.3 189.681 27.4C188.281 28.5 186.931 29.05 185.631 29.05ZM243.309 120.1C238.409 120.1 233.959 119.35 229.959 117.85C226.059 116.35 222.959 114.2 220.659 111.4C218.359 108.5 217.209 105.15 217.209 101.35C217.209 97.95 218.359 95.15 220.659 92.95C222.959 90.75 225.959 89.65 229.659 89.65C230.459 89.65 231.159 89.8 231.759 90.1C232.459 90.3 232.809 90.75 232.809 91.45C232.809 92.05 232.509 93 231.909 94.3C231.309 95.5 231.009 97.35 231.009 99.85C231.009 102.85 231.759 105.3 233.259 107.2C234.759 109.1 236.609 110.5 238.809 111.4C241.009 112.3 243.159 112.75 245.259 112.75C249.359 112.75 252.709 111.65 255.309 109.45C258.009 107.15 259.359 104.2 259.359 100.6C259.359 98.2 258.559 96.2 256.959 94.6C255.459 92.9 253.459 91.4 250.959 90.1C248.459 88.8 245.809 87.55 243.009 86.35C239.409 84.85 235.759 83.1 232.059 81.1C228.359 79.1 225.259 76.6 222.759 73.6C220.259 70.5 219.009 66.55 219.009 61.75C219.009 57.65 220.209 54.1 222.609 51.1C225.009 48.1 228.259 45.75 232.359 44.05C236.459 42.35 241.109 41.5 246.309 41.5C253.309 41.5 259.159 42.9 263.859 45.7C268.659 48.4 271.059 52.15 271.059 56.95C271.059 60.65 269.859 63.75 267.459 66.25C265.159 68.75 262.159 70 258.459 70C256.359 70 255.309 69.35 255.309 68.05C255.309 67.25 255.659 66.25 256.359 65.05C257.159 63.75 257.559 61.95 257.559 59.65C257.559 56.95 256.909 54.8 255.609 53.2C254.309 51.6 252.709 50.45 250.809 49.75C249.009 49.05 247.159 48.7 245.259 48.7C241.059 48.7 237.809 49.75 235.509 51.85C233.209 53.85 232.059 56.45 232.059 59.65C232.059 62.35 232.859 64.65 234.459 66.55C236.159 68.45 238.359 70.1 241.059 71.5C243.759 72.9 246.609 74.25 249.609 75.55C253.309 77.05 256.909 78.75 260.409 80.65C264.009 82.45 267.009 84.7 269.409 87.4C271.809 90.1 273.009 93.5 273.009 97.6C273.009 104.4 270.309 109.85 264.909 113.95C259.509 118.05 252.309 120.1 243.309 120.1ZM324.676 120.1C317.176 120.1 310.676 118.5 305.176 115.3C299.776 112.1 295.576 107.55 292.576 101.65C289.576 95.75 288.076 88.8 288.076 80.8C288.076 72.7 289.576 65.75 292.576 59.95C295.576 54.05 299.776 49.5 305.176 46.3C310.676 43.1 317.176 41.5 324.676 41.5C332.176 41.5 338.626 43.1 344.026 46.3C349.526 49.5 353.776 54.05 356.776 59.95C359.776 65.75 361.276 72.7 361.276 80.8C361.276 88.8 359.776 95.75 356.776 101.65C353.776 107.55 349.526 112.1 344.026 115.3C338.626 118.5 332.176 120.1 324.676 120.1ZM324.226 112C330.426 112 335.526 109.2 339.526 103.6C343.526 97.9 345.526 90.45 345.526 81.25C345.526 78.25 345.176 74.9 344.476 71.2C343.876 67.5 342.776 64 341.176 60.7C339.676 57.4 337.626 54.7 335.026 52.6C332.426 50.4 329.126 49.3 325.126 49.3C320.926 49.3 317.176 50.65 313.876 53.35C310.676 55.95 308.176 59.65 306.376 64.45C304.576 69.15 303.676 74.65 303.676 80.95C303.676 90.35 305.526 97.9 309.226 103.6C312.926 109.2 317.926 112 324.226 112ZM444.845 120.1C440.745 120.1 437.795 118.85 435.995 116.35C434.195 113.85 433.295 109.8 433.295 104.2V68.5C433.295 58.3 428.995 53.2 420.395 53.2C416.095 53.2 412.295 54.9 408.995 58.3C405.795 61.7 403.245 66.5 401.345 72.7C399.545 78.8 398.645 85.9 398.645 94C398.645 98.7 398.995 102.45 399.695 105.25C400.395 108.05 401.645 110.75 403.445 113.35L405.245 115.75L403.445 118H377.195L375.545 113.35L378.695 112.6C381.295 112 382.995 110.9 383.795 109.3C384.595 107.7 384.995 105.05 384.995 101.35V59.2C384.995 57 383.995 55.9 381.995 55.9H375.395L374.045 52C376.945 49.4 380.245 47.25 383.945 45.55C387.745 43.85 391.045 43 393.845 43C395.245 43 396.395 43.45 397.295 44.35C398.195 45.25 398.645 46.4 398.645 47.8V63.85C400.345 59.45 402.645 55.6 405.545 52.3C408.545 48.9 411.845 46.25 415.445 44.35C419.145 42.45 422.895 41.5 426.695 41.5C433.695 41.5 438.795 43.65 441.995 47.95C445.195 52.25 446.795 59.1 446.795 68.5V104.8C446.795 108.2 448.295 109.9 451.295 109.9C453.595 109.9 456.095 108.85 458.795 106.75L461.645 110.65C459.045 113.55 456.245 115.85 453.245 117.55C450.245 119.25 447.445 120.1 444.845 120.1ZM539.487 120.1C534.787 120.1 530.387 118.75 526.287 116.05C522.187 113.35 518.887 109.3 516.387 103.9C513.887 98.5 512.637 91.75 512.637 83.65C512.637 74.95 514.187 67.45 517.287 61.15C520.487 54.85 524.987 50 530.787 46.6C536.687 43.2 543.587 41.5 551.487 41.5C556.687 41.5 561.437 42.15 565.737 43.45V16.9C565.737 14.7 564.737 13.6 562.737 13.6H556.137L554.787 9.69999C557.687 7.09999 560.987 4.95 564.687 3.24999C568.487 1.54999 571.787 0.69999 574.587 0.69999C575.987 0.69999 577.137 1.14999 578.037 2.04999C578.937 2.94999 579.387 4.09999 579.387 5.49999V104.8C579.387 107.9 580.887 109.45 583.887 109.45C586.387 109.45 588.887 108.55 591.387 106.75L594.237 110.65C591.637 113.55 588.837 115.85 585.837 117.55C582.937 119.25 580.187 120.1 577.587 120.1C573.487 120.1 570.537 118.85 568.737 116.35C566.937 113.85 566.037 109.8 566.037 104.2C561.737 110.3 557.387 114.5 552.987 116.8C548.687 119 544.187 120.1 539.487 120.1ZM545.487 108.55C549.287 108.55 552.937 107.45 556.437 105.25C560.037 103.05 563.237 99.6 566.037 94.9V54.4C561.437 51.3 556.537 49.75 551.337 49.75C544.037 49.75 538.387 52.5 534.387 58C530.387 63.4 528.387 71 528.387 80.8C528.387 87.6 529.187 93.05 530.787 97.15C532.387 101.15 534.487 104.05 537.087 105.85C539.787 107.65 542.587 108.55 545.487 108.55ZM606.914 39.7L602.564 36.85L609.464 23.35C610.664 20.95 611.264 18.9 611.264 17.2C611.264 15.2 610.114 13.35 607.814 11.65L605.114 9.85L604.364 6.24999L606.914 5.19999C608.314 4.7 609.714 4.29999 611.114 3.99999C612.614 3.59999 614.014 3.39999 615.314 3.39999C618.014 3.39999 620.314 4.14999 622.214 5.65C624.114 7.15 625.064 9.75 625.064 13.45C625.064 16.55 623.864 19.7 621.464 22.9C619.164 26.1 616.264 29.6 612.764 33.4L606.914 39.7ZM673.455 120.1C665.955 120.1 659.455 118.5 653.955 115.3C648.555 112.1 644.355 107.55 641.355 101.65C638.355 95.75 636.855 88.8 636.855 80.8C636.855 72.7 638.355 65.75 641.355 59.95C644.355 54.05 648.555 49.5 653.955 46.3C659.455 43.1 665.955 41.5 673.455 41.5C680.955 41.5 687.405 43.1 692.805 46.3C698.305 49.5 702.555 54.05 705.555 59.95C708.555 65.75 710.055 72.7 710.055 80.8C710.055 88.8 708.555 95.75 705.555 101.65C702.555 107.55 698.305 112.1 692.805 115.3C687.405 118.5 680.955 120.1 673.455 120.1ZM673.005 112C679.205 112 684.305 109.2 688.305 103.6C692.305 97.9 694.305 90.45 694.305 81.25C694.305 78.25 693.955 74.9 693.255 71.2C692.655 67.5 691.555 64 689.955 60.7C688.455 57.4 686.405 54.7 683.805 52.6C681.205 50.4 677.905 49.3 673.905 49.3C669.705 49.3 665.955 50.65 662.655 53.35C659.455 55.95 656.955 59.65 655.155 64.45C653.355 69.15 652.455 74.65 652.455 80.95C652.455 90.35 654.305 97.9 658.005 103.6C661.705 109.2 666.705 112 673.005 112ZM725.974 118L724.324 113.35L727.474 112.6C730.074 112 731.774 110.9 732.574 109.3C733.374 107.7 733.774 105.05 733.774 101.35V59.2C733.774 57 732.774 55.9 730.774 55.9H724.174L722.824 52C725.724 49.4 729.024 47.25 732.724 45.55C736.524 43.85 739.824 43 742.624 43C744.024 43 745.174 43.45 746.074 44.35C746.974 45.25 747.424 46.4 747.424 47.8V63.85H748.324C750.024 57.15 752.624 51.75 756.124 47.65C759.724 43.55 763.624 41.5 767.824 41.5C771.924 41.5 775.374 42.85 778.174 45.55C780.974 48.25 782.374 52 782.374 56.8C782.374 60.6 780.974 63.8 778.174 66.4C775.474 69 771.974 70.3 767.674 70.3C765.774 70.3 764.824 69.75 764.824 68.65C764.824 68.15 765.174 67.45 765.874 66.55C766.574 65.65 767.274 64.5 767.974 63.1C768.674 61.7 769.024 60.1 769.024 58.3C769.024 56.5 768.524 55.1 767.524 54.1C766.624 53 765.474 52.45 764.074 52.45C761.974 52.45 759.624 53.8 757.024 56.5C754.424 59.1 752.174 63.5 750.274 69.7C748.374 75.8 747.424 84.1 747.424 94.6C747.424 99.1 747.774 102.75 748.474 105.55C749.174 108.25 750.424 110.85 752.224 113.35L754.024 115.75L752.224 118H725.974Z" fill="#E3A058"/>
</svg>
